<?xml version="1.0"?>
<svg xmlns="http://www.w3.org/2000/svg" viewBox="0 0 629.9 335.77" width="629.9" height="335.77" role="img" aria-label="Oceans Celebrancy">
  <title>Oceans Celebrancy — primary wordmark</title>
  <g fill="#0F3D33">
    <path d="M104.28 164.93L104.28 164.93Q94.03 164.93 84.54 161.23Q75.05 157.54 67.57 150.23Q60.10 142.92 55.73 132Q51.36 121.08 51.36 106.46L51.36 106.46Q51.36 92.02 55.73 81.10Q60.10 70.18 67.66 62.87Q75.22 55.56 84.71 51.78Q94.20 48.00 104.28 48.00L104.28 48.00Q114.53 48.00 124.02 51.61Q133.51 55.22 140.99 62.53Q148.46 69.84 152.83 80.84Q157.20 91.85 157.20 106.46L157.20 106.46Q157.20 120.74 152.83 131.75Q148.46 142.75 140.99 150.06Q133.51 157.37 124.02 161.15Q114.53 164.93 104.28 164.93ZM104.28 161.40L104.28 161.40Q113.52 161.40 119.23 156.44Q124.94 151.49 127.55 139.48Q130.15 127.46 130.15 106.46L130.15 106.46Q130.15 85.30 127.55 73.28Q124.94 61.27 119.23 56.32Q113.52 51.36 104.28 51.36L104.28 51.36Q95.21 51.36 89.50 56.32Q83.78 61.27 81.18 73.28Q78.58 85.30 78.58 106.46L78.58 106.46Q78.58 127.46 81.18 139.48Q83.78 151.49 89.50 156.44Q95.21 161.40 104.28 161.40ZM204.74 164.42L204.74 164.42Q193.32 164.42 184.00 159.47Q174.67 154.51 169.21 145.02Q163.75 135.53 163.75 121.75L163.75 121.75Q163.75 108.14 169.72 98.48Q175.68 88.82 185.68 83.70Q195.67 78.58 207.60 78.58L207.60 78.58Q217.34 78.58 224.06 81.77Q230.78 84.96 234.31 90.08Q237.84 95.21 237.84 100.75L237.84 100.75Q237.84 105.46 234.98 108.06Q232.13 110.66 227.59 110.66L227.59 110.66Q222.72 110.66 219.70 107.14Q216.67 103.61 216.17 97.90L216.17 97.90Q216 94.20 216.34 91.60Q216.67 88.99 216.34 86.30L216.34 86.30Q215.66 83.45 214.24 82.52Q212.81 81.60 210.29 81.60L210.29 81.60Q200.04 81.60 194.41 90.50Q188.78 99.41 188.78 118.90L188.78 118.90Q188.78 135.86 195.08 144.85Q201.38 153.84 214.49 153.84L214.49 153.84Q222.38 153.84 227.26 150.98Q232.13 148.13 236.66 142.42L236.66 142.42L238.34 143.76Q234.14 153.67 225.41 159.05Q216.67 164.42 204.74 164.42ZM287.40 78.58L287.40 78.58Q298.32 78.58 306.05 83.03Q313.78 87.48 317.89 95.12Q322.01 102.77 322.01 112.51L322.01 112.51Q322.01 114.36 321.84 116.29Q321.67 118.22 321.17 119.74L321.17 119.74L271.10 119.74Q271.27 137.88 277.57 145.86Q283.87 153.84 296.30 153.84L296.30 153.84Q304.70 153.84 309.91 151.15Q315.12 148.46 319.66 143.26L319.66 143.26L321.34 144.77Q316.13 154.01 307.48 159.22Q298.82 164.42 286.73 164.42L286.73 164.42Q274.80 164.42 265.56 159.30Q256.32 154.18 251.11 144.60Q245.90 135.02 245.90 121.75L245.90 121.75Q245.90 107.98 251.95 98.32Q258 88.66 267.49 83.62Q276.98 78.58 287.40 78.58ZM286.90 81.94L286.90 81.94Q282.02 81.94 278.58 84.88Q275.14 87.82 273.20 95.29Q271.27 102.77 271.10 116.38L271.10 116.38L299.83 116.38Q301.51 98.06 298.49 90.00Q295.46 81.94 286.90 81.94ZM354.10 164.42L354.10 164.42Q344.35 164.42 337.72 158.88Q331.08 153.34 331.08 142.92L331.08 142.92Q331.08 135.02 339.14 128.39Q347.21 121.75 364.51 118.39L364.51 118.39Q367.20 117.89 370.56 117.30Q373.92 116.71 377.62 116.04L377.62 116.04L377.62 102.77Q377.62 91.34 374.84 86.72Q372.07 82.10 366.19 82.10L366.19 82.10Q362.16 82.10 359.81 84.71Q357.46 87.31 356.78 93.70L356.78 93.70L356.45 95.54Q356.11 102.77 352.92 106.13Q349.73 109.49 345.02 109.49L345.02 109.49Q340.66 109.49 337.80 106.80Q334.94 104.11 334.94 99.58L334.94 99.58Q334.94 92.69 339.73 87.98Q344.52 83.28 352.42 80.93Q360.31 78.58 369.55 78.58L369.55 78.58Q384.50 78.58 392.65 85.88Q400.80 93.19 400.80 109.66L400.80 109.66L400.80 146.78Q400.80 154.34 407.86 154.34L407.86 154.34L411.55 154.34L413.06 155.69Q409.87 159.72 406.09 161.90Q402.31 164.09 395.42 164.09L395.42 164.09Q388.03 164.09 383.75 160.64Q379.46 157.20 378.12 151.49L378.12 151.49Q373.08 156.86 367.79 160.64Q362.50 164.42 354.10 164.42ZM364.34 154.18L364.34 154.18Q367.70 154.18 370.64 152.58Q373.58 150.98 377.62 147.62L377.62 147.62L377.62 119.40Q375.94 119.74 374.26 120.07Q372.58 120.41 370.39 120.74L370.39 120.74Q362.66 122.76 358.04 127.55Q353.42 132.34 353.42 140.40L353.42 140.40Q353.42 147.29 356.62 150.73Q359.81 154.18 364.34 154.18ZM455.23 161.90L415.75 161.90L415.75 160.22L418.10 159.55Q423.98 157.87 423.98 151.32L423.98 151.32L423.98 98.74Q423.98 95.04 422.81 93.28Q421.63 91.51 418.27 90.84L418.27 90.84L415.75 90.17L415.75 88.49L444.48 78.74L446.16 80.42L447.50 90.50Q453.38 85.30 460.78 81.94Q468.17 78.58 475.39 78.58L475.39 78.58Q486.48 78.58 492.44 84.62Q498.41 90.67 498.41 103.10L498.41 103.10L498.41 151.49Q498.41 158.04 504.79 159.72L504.79 159.72L506.30 160.22L506.30 161.90L466.66 161.90L466.66 160.22L468.84 159.55Q474.72 157.70 474.72 151.32L474.72 151.32L474.72 97.73Q474.72 86.98 463.97 86.98L463.97 86.98Q456.58 86.98 447.84 94.37L447.84 94.37L447.84 151.49Q447.84 158.04 453.72 159.72L453.72 159.72L455.23 160.22L455.23 161.90ZM541.08 164.42L541.08 164.42Q532.85 164.42 526.30 162.49Q519.74 160.56 514.20 157.70L514.20 157.70L514.37 137.71L516.05 137.71L521.76 147.79Q525.46 154.51 529.91 157.79Q534.36 161.06 541.25 161.06L541.25 161.06Q549.31 161.06 554.27 157.45Q559.22 153.84 559.22 147.79L559.22 147.79Q559.22 142.25 555.70 138.72Q552.17 135.19 542.59 132.34L542.59 132.34L535.54 130.15Q525.29 127.13 519.41 120.74Q513.53 114.36 513.53 105.12L513.53 105.12Q513.53 94.03 522.26 86.30Q531.00 78.58 547.30 78.58L547.30 78.58Q553.85 78.58 559.64 80.00Q565.44 81.43 570.82 84.29L570.82 84.29L569.81 102.43L568.13 102.43L562.25 92.02Q559.06 86.47 555.95 84.20Q552.84 81.94 546.62 81.94L546.62 81.94Q540.91 81.94 535.87 85.13Q530.83 88.32 530.83 94.20L530.83 94.20Q530.83 99.91 535.12 103.27Q539.40 106.63 547.80 109.49L547.80 109.49L555.36 111.67Q567.46 115.37 572.66 121.84Q577.87 128.30 577.87 137.38L577.87 137.38Q577.87 149.64 568.21 157.03Q558.55 164.42 541.08 164.42Z"></path>
    <path d="M149.62 272.23L149.62 272.23Q142.83 272.23 137.34 269.47Q131.84 266.70 128.62 261.24Q125.40 255.78 125.40 247.87L125.40 247.87Q125.40 241.85 127.36 237.30Q129.32 232.75 132.72 229.67Q136.11 226.59 140.56 225.05Q145 223.51 149.97 223.51L149.97 223.51Q153.96 223.51 157.32 224.42Q160.68 225.33 163.62 226.94L163.62 226.94L163.90 235.55L163.20 235.55L159.70 229.95Q159 228.62 158.16 227.54Q157.32 226.45 156.06 225.89L156.06 225.89Q155.01 225.40 154.00 225.16Q152.98 224.91 151.44 224.91L151.44 224.91Q147.38 224.91 144.06 227.08Q140.73 229.25 138.74 234.26Q136.74 239.26 136.74 247.94L136.74 247.94Q136.74 256.55 138.63 261.56Q140.52 266.56 143.78 268.70Q147.03 270.83 151.09 270.83L151.09 270.83Q153.33 270.83 154.66 270.52Q155.99 270.20 157.32 269.57L157.32 269.57Q158.65 269.01 159.35 267.93Q160.05 266.84 160.61 265.58L160.61 265.58L163.69 258.72L164.39 258.72L164.18 268.73Q161.24 270.27 157.60 271.25Q153.96 272.23 149.62 272.23ZM188.33 236.25L188.33 236.25Q192.88 236.25 196.10 238.11Q199.32 239.96 201.04 243.15Q202.75 246.33 202.75 250.39L202.75 250.39Q202.75 251.16 202.68 251.97Q202.61 252.77 202.40 253.40L202.40 253.40L181.54 253.40Q181.61 260.96 184.24 264.29Q186.86 267.61 192.04 267.61L192.04 267.61Q195.54 267.61 197.71 266.49Q199.88 265.37 201.77 263.20L201.77 263.20L202.47 263.83Q200.30 267.68 196.70 269.85Q193.09 272.02 188.05 272.02L188.05 272.02Q183.08 272.02 179.23 269.89Q175.38 267.75 173.21 263.76Q171.04 259.77 171.04 254.24L171.04 254.24Q171.04 248.50 173.56 244.48Q176.08 240.45 180.04 238.35Q183.99 236.25 188.33 236.25ZM188.12 237.65L188.12 237.65Q186.09 237.65 184.66 238.88Q183.22 240.10 182.42 243.22Q181.61 246.33 181.54 252.00L181.54 252.00L193.51 252.00Q194.21 244.37 192.95 241.01Q191.69 237.65 188.12 237.65ZM226.34 270.97L209.61 270.97L209.61 270.27L210.45 269.99Q212.97 269.15 212.97 266.49L212.97 266.49L212.97 229.04Q212.97 227.64 212.41 226.91Q211.85 226.17 210.45 225.82L210.45 225.82L209.54 225.61L209.54 224.91L222.35 221.90L223.19 222.53L222.91 232.33L222.91 256.27Q222.91 258.86 222.94 261.42Q222.98 263.97 222.98 266.49L222.98 266.49Q222.98 267.89 223.54 268.77Q224.10 269.64 225.43 270.06L225.43 270.06L226.34 270.27L226.34 270.97ZM250.14 236.25L250.14 236.25Q254.69 236.25 257.91 238.11Q261.13 239.96 262.84 243.15Q264.56 246.33 264.56 250.39L264.56 250.39Q264.56 251.16 264.49 251.97Q264.42 252.77 264.21 253.40L264.21 253.40L243.35 253.40Q243.42 260.96 246.04 264.29Q248.67 267.61 253.85 267.61L253.85 267.61Q257.35 267.61 259.52 266.49Q261.69 265.37 263.58 263.20L263.58 263.20L264.28 263.83Q262.11 267.68 258.50 269.85Q254.90 272.02 249.86 272.02L249.86 272.02Q244.89 272.02 241.04 269.89Q237.19 267.75 235.02 263.76Q232.85 259.77 232.85 254.24L232.85 254.24Q232.85 248.50 235.37 244.48Q237.89 240.45 241.84 238.35Q245.80 236.25 250.14 236.25ZM249.93 237.65L249.93 237.65Q247.90 237.65 246.46 238.88Q245.03 240.10 244.22 243.22Q243.42 246.33 243.35 252.00L243.35 252.00L255.32 252.00Q256.02 244.37 254.76 241.01Q253.50 237.65 249.93 237.65ZM284.30 269.36L283.18 271.88L271.35 270.97L271.35 270.27L272.05 270.13Q274.78 269.50 274.78 266.63L274.78 266.63L274.78 229.18Q274.78 227.71 274.32 226.94Q273.87 226.17 272.47 225.89L272.47 225.89L271.49 225.61L271.49 224.91L283.95 221.90L284.79 222.53L284.51 232.40L284.51 239.47Q286.82 237.86 289.55 237.06Q292.28 236.25 295.08 236.25L295.08 236.25Q299.07 236.25 302.15 238.11Q305.23 239.96 307.01 243.85Q308.80 247.73 308.80 253.82L308.80 253.82Q308.80 259.91 306.81 263.94Q304.81 267.96 301.49 269.99Q298.16 272.02 294.17 272.02L294.17 272.02Q291.58 272.02 288.95 271.32Q286.33 270.62 284.30 269.36L284.30 269.36ZM290.67 269.64L290.67 269.64Q292.91 269.64 294.59 268.24Q296.27 266.84 297.25 263.45Q298.23 260.05 298.23 254.10L298.23 254.10Q298.23 248.15 297.32 244.93Q296.41 241.71 294.76 240.45Q293.12 239.19 290.81 239.19L290.81 239.19Q287.52 239.19 284.72 241.01L284.72 241.01L284.72 267.89Q286.05 268.73 287.45 269.19Q288.85 269.64 290.67 269.64ZM333.16 270.97L315.03 270.97L315.03 270.27L316.08 269.99Q317.48 269.57 318.00 268.73Q318.53 267.89 318.53 266.56L318.53 266.56L318.53 244.65Q318.53 243.11 318.00 242.38Q317.48 241.64 316.08 241.36L316.08 241.36L315.03 241.08L315.03 240.38L327.07 236.32L327.77 237.02L328.40 243.04L328.40 243.60Q329.38 241.64 330.95 240.00Q332.53 238.35 334.45 237.30Q336.38 236.25 338.27 236.25L338.27 236.25Q340.93 236.25 342.33 237.72Q343.73 239.19 343.73 241.43L343.73 241.43Q343.73 243.81 342.37 245.11Q341 246.40 339.11 246.40L339.11 246.40Q336.17 246.40 333.93 243.46L333.93 243.46L333.79 243.32Q333.09 242.34 332.18 242.24Q331.27 242.13 330.50 243.11L330.50 243.11Q329.80 243.74 329.34 244.62Q328.89 245.49 328.47 246.61L328.47 246.61L328.47 266.14Q328.47 268.94 330.92 269.64L330.92 269.64L333.16 270.27L333.16 270.97ZM359.27 272.02L359.27 272.02Q355.21 272.02 352.44 269.71Q349.68 267.40 349.68 263.06L349.68 263.06Q349.68 259.77 353.04 257.01Q356.40 254.24 363.61 252.84L363.61 252.84Q364.73 252.63 366.13 252.39Q367.53 252.14 369.07 251.86L369.07 251.86L369.07 246.33Q369.07 241.57 367.91 239.65Q366.76 237.72 364.31 237.72L364.31 237.72Q362.63 237.72 361.65 238.81Q360.67 239.89 360.39 242.55L360.39 242.55L360.25 243.32Q360.11 246.33 358.78 247.73Q357.45 249.13 355.49 249.13L355.49 249.13Q353.67 249.13 352.48 248.01Q351.29 246.89 351.29 245.00L351.29 245.00Q351.29 242.13 353.28 240.17Q355.28 238.21 358.57 237.23Q361.86 236.25 365.71 236.25L365.71 236.25Q371.94 236.25 375.33 239.30Q378.73 242.34 378.73 249.20L378.73 249.20L378.73 264.67Q378.73 267.82 381.67 267.82L381.67 267.82L383.21 267.82L383.84 268.38Q382.51 270.06 380.94 270.97Q379.36 271.88 376.49 271.88L376.49 271.88Q373.41 271.88 371.63 270.45Q369.84 269.01 369.28 266.63L369.28 266.63Q367.18 268.87 364.97 270.45Q362.77 272.02 359.27 272.02ZM363.54 267.75L363.54 267.75Q364.94 267.75 366.16 267.09Q367.39 266.42 369.07 265.02L369.07 265.02L369.07 253.26Q368.37 253.40 367.67 253.54Q366.97 253.68 366.06 253.82L366.06 253.82Q362.84 254.66 360.91 256.66Q358.99 258.65 358.99 262.01L358.99 262.01Q358.99 264.88 360.32 266.32Q361.65 267.75 363.54 267.75ZM404.91 270.97L388.46 270.97L388.46 270.27L389.44 269.99Q391.89 269.29 391.89 266.56L391.89 266.56L391.89 244.65Q391.89 243.11 391.40 242.38Q390.91 241.64 389.51 241.36L389.51 241.36L388.46 241.08L388.46 240.38L400.43 236.32L401.13 237.02L401.69 241.22Q404.14 239.05 407.22 237.65Q410.30 236.25 413.31 236.25L413.31 236.25Q417.93 236.25 420.41 238.77Q422.90 241.29 422.90 246.47L422.90 246.47L422.90 266.63Q422.90 269.36 425.56 270.06L425.56 270.06L426.19 270.27L426.19 270.97L409.67 270.97L409.67 270.27L410.58 269.99Q413.03 269.22 413.03 266.56L413.03 266.56L413.03 244.23Q413.03 239.75 408.55 239.75L408.55 239.75Q405.47 239.75 401.83 242.83L401.83 242.83L401.83 266.63Q401.83 269.36 404.28 270.06L404.28 270.06L404.91 270.27L404.91 270.97ZM449.43 272.02L449.43 272.02Q444.67 272.02 440.78 269.96Q436.90 267.89 434.62 263.94Q432.35 259.98 432.35 254.24L432.35 254.24Q432.35 248.57 434.83 244.55Q437.32 240.52 441.48 238.39Q445.65 236.25 450.62 236.25L450.62 236.25Q454.68 236.25 457.48 237.58Q460.28 238.91 461.75 241.05Q463.22 243.18 463.22 245.49L463.22 245.49Q463.22 247.45 462.03 248.54Q460.84 249.62 458.95 249.62L458.95 249.62Q456.92 249.62 455.66 248.15Q454.40 246.68 454.19 244.30L454.19 244.30Q454.12 242.76 454.26 241.68Q454.40 240.59 454.26 239.47L454.26 239.47Q453.98 238.28 453.38 237.90Q452.79 237.51 451.74 237.51L451.74 237.51Q447.47 237.51 445.12 241.22Q442.78 244.93 442.78 253.05L442.78 253.05Q442.78 260.12 445.40 263.87Q448.03 267.61 453.49 267.61L453.49 267.61Q456.78 267.61 458.81 266.42Q460.84 265.23 462.73 262.85L462.73 262.85L463.43 263.41Q461.68 267.54 458.04 269.78Q454.40 272.02 449.43 272.02ZM476.24 287.77L476.24 287.77Q473.44 287.77 471.79 286.37Q470.15 284.97 470.15 282.80L470.15 282.80Q470.15 280.84 471.55 279.65Q472.95 278.46 474.70 278.46L474.70 278.46Q476.45 278.46 477.64 279.20Q478.83 279.93 479.74 281.33L479.74 281.33L480.23 281.89Q481.77 283.99 483.31 281.82L483.31 281.82Q483.94 280.77 484.75 279.06Q485.55 277.34 486.60 274.47L486.60 274.47L473.02 241.99Q472.53 240.66 471.97 239.86Q471.41 239.05 470.15 238.49L470.15 238.49L468.89 238.00L468.89 237.30L486.32 237.30L486.32 237.93L484.92 238.49Q483.38 238.98 483.34 240.07Q483.31 241.15 483.87 242.76L483.87 242.76L491.15 261.66L498.08 242.55Q498.64 240.94 498.50 239.86Q498.36 238.77 496.75 238.35L496.75 238.35L495.28 238.00L495.28 237.30L505.01 237.30L505.01 238.00L503.47 238.49Q501.86 238.98 501.23 239.89Q500.60 240.80 500.04 242.41L500.04 242.41L488.77 273.14Q486.04 280.49 483.31 284.13Q480.58 287.77 476.24 287.77Z"></path>
  </g>
  <g transform="translate(164.95 177.90) scale(3.0000 1.4444)">
    <path d="M 0 9 C 12.5 2, 37.5 16, 50 9 C 62.5 2, 87.5 16, 100 9" fill="none" stroke="#E8C547" stroke-width="4" stroke-linecap="round" vector-effect="non-scaling-stroke"></path>
  </g>
</svg>